# xmcd CD database file
#
# Track frame offsets:
#	150
#	16188
#	33782
#	55799
#	72397
#	91574
#	112800
#	124380
#	143220
#	151515
#	164792
#	175161
#	195998
#	215030
#	232144
#	242752
#	260451
#	281052
#	298125
#	318356
#	336294
#
# Disc length: 4717 seconds
#
# Revision: 4
# Processed by: cddbd v1.5.2PL0 Copyright (c) Steve Scherf et al.
# Submitted via: CDex 1.51
#
DISCID=30126b15
DTITLE=Jean-Félix Lalanne - Autour de la guitare
DYEAR=2002
DGENRE=Blues
TTITLE0=Lalanne - Hérétique
TTITLE1=Lalanne - Bras dessus bras dessous
TTITLE2=Nougaro and Le Forestier - La danse
TTITLE3=Lalanne - Miss
TTITLE4=Lalanne - Yohna
TTITLE5=Maurane - Sur un prélude de Bach
TTITLE6=Lalanne - Mers et lunes
TTITLE7=Arzel and Goldman and Yacoub - Un grand frère
TTITLE8=Lalanne - Tea time frealing
TTITLE9=Lalanne - Irish dance - Country medieval
TTITLE10=Maurane and Lafontaine - Petite fugue
TTITLE11=Lalanne - Selena's dream
TTITLE12=Lalanne - Zapateado
TTITLE13=Meyer - Alfonsina
TTITLE14=Lalanne - Suite irlandaise
TTITLE15=Head and Jones - Say it ain't so
TTITLE16=De Palmas - Johnny and Joe
TTITLE17=Lalanne - Le diset wedding
TTITLE18=De Palmas and Arzel - Prends ma main
TTITLE19=Levi - L'enfant
TTITLE20=Lalanne - Shoah des larmes
EXTD=YEAR: 2002
EXTT0=
EXTT1=
EXTT2=
EXTT3=
EXTT4=
EXTT5=
EXTT6=
EXTT7=
EXTT8=
EXTT9=
EXTT10=
EXTT11=
EXTT12=
EXTT13=
EXTT14=
EXTT15=
EXTT16=
EXTT17=
EXTT18=
EXTT19=
EXTT20=
PLAYORDER=
